<?xml version="1.0" encoding="utf-8"?>
<!-- Generator: Adobe Illustrator 16.0.0, SVG Export Plug-In . SVG Version: 6.00 Build 0)  -->
<!DOCTYPE svg PUBLIC "-//W3C//DTD SVG 1.1//EN" "http://www.w3.org/Graphics/SVG/1.1/DTD/svg11.dtd">
<svg version="1.1" id="Layer_1" xmlns="http://www.w3.org/2000/svg" xmlns:xlink="http://www.w3.org/1999/xlink" x="0px" y="0px"
	 width="130.999px" height="81px" viewBox="0 0 130.999 81" enable-background="new 0 0 130.999 81" xml:space="preserve">
<g>
	<path fill="#DBDBDB" d="M131.101,72c0,0.324-0.684,1-1,1h-129c-0.316,0-1-0.676-1-1V1c0-0.324,0.684-1,1-1h128.798
		c0.316,0,1.201,0.887,1.201,1.212V72z M127.101,4h-123v65h123V4z M65.602,70.73h-1.203v1.212h1.203V70.73z M65.278,0.499
		c-0.07,0-0.127,0.058-0.127,0.131c0,0.071,0.057,0.13,0.127,0.13s0.127-0.059,0.127-0.13C65.405,0.557,65.348,0.499,65.278,0.499z
		 M65.948,0.563c-0.035,0-0.064,0.029-0.064,0.066c0,0.036,0.029,0.065,0.064,0.065s0.064-0.029,0.064-0.065
		C66.012,0.593,65.983,0.563,65.948,0.563z"/>
	<path fill="#DBDBDB" d="M68.103,77h-6.001v-4h6.001V77z"/>
	<path fill="#DBDBDB" d="M79.101,81h-29v-4h29V81z"/>
</g>
<g>
	<path fill="#CCCCCC" d="M38.921,45.792h-3.833V33.537h-4.75v-2.888c2.672,0.054,5.128-0.864,5.533-3.752h3.05V45.792z"/>
	<path fill="#CCCCCC" d="M48.804,26.519c3.779,0,6.964,2.375,6.964,9.745c0,7.531-3.185,9.906-6.964,9.906
		c-3.725,0-6.91-2.375-6.91-9.906C41.894,28.895,45.079,26.519,48.804,26.519z M48.804,43.012c3.131,0,3.131-4.616,3.131-6.748
		c0-1.971,0-6.586-3.131-6.586c-3.077,0-3.077,4.616-3.077,6.586C45.727,38.396,45.727,43.012,48.804,43.012z"/>
	<path fill="#CCCCCC" d="M63.87,26.519c4.697,0,6.317,3.239,6.317,5.075c0,1.862-0.972,3.374-2.754,3.968v0.054
		c2.24,0.513,3.536,2.24,3.536,4.616c0,3.968-3.563,5.938-7.072,5.938c-3.644,0-7.18-1.836-7.18-5.912
		c0-2.402,1.35-4.103,3.563-4.643v-0.054c-1.835-0.513-2.78-2.024-2.78-3.887C57.5,28.273,60.793,26.519,63.87,26.519z
		 M63.897,43.281c1.835,0,3.239-1.295,3.239-3.185c0-1.809-1.458-3.023-3.239-3.023c-1.863,0-3.347,1.053-3.347,2.996
		S62.062,43.281,63.897,43.281z M63.87,34.509c1.566,0,2.834-0.864,2.834-2.483c0-0.972-0.459-2.619-2.834-2.619
		c-1.539,0-2.888,0.945-2.888,2.619C60.982,33.672,62.332,34.509,63.87,34.509z"/>
	<path fill="#CCCCCC" d="M78.828,26.519c3.779,0,6.965,2.375,6.965,9.745c0,7.531-3.186,9.906-6.965,9.906
		c-3.725,0-6.91-2.375-6.91-9.906C71.918,28.895,75.104,26.519,78.828,26.519z M78.828,43.012c3.132,0,3.132-4.616,3.132-6.748
		c0-1.971,0-6.586-3.132-6.586c-3.077,0-3.077,4.616-3.077,6.586C75.751,38.396,75.751,43.012,78.828,43.012z"/>
	<path fill="#CCCCCC" d="M87.822,31.837h3.644v1.781h0.054c0.918-1.484,2.43-2.159,4.157-2.159c4.373,0,6.344,3.536,6.344,7.504
		c0,3.725-2.052,7.207-6.128,7.207c-1.674,0-3.266-0.729-4.184-2.105h-0.054v6.641h-3.833V31.837z M98.188,38.855
		c0-2.213-0.892-4.508-3.348-4.508c-2.51,0-3.32,2.24-3.32,4.508c0,2.267,0.864,4.426,3.348,4.426
		C97.377,43.281,98.188,41.122,98.188,38.855z"/>
</g>
</svg>
