<?xml version="1.0" encoding="utf-8"?>
<!-- Generator: Adobe Illustrator 16.0.0, SVG Export Plug-In . SVG Version: 6.00 Build 0)  -->
<!DOCTYPE svg PUBLIC "-//W3C//DTD SVG 1.1//EN" "http://www.w3.org/Graphics/SVG/1.1/DTD/svg11.dtd">
<svg version="1.1" id="Layer_1" xmlns="http://www.w3.org/2000/svg" xmlns:xlink="http://www.w3.org/1999/xlink" x="0px" y="0px"
	 width="100.999px" height="66px" viewBox="0 0 100.999 66" enable-background="new 0 0 100.999 66" xml:space="preserve">
<g>
	<g>
		<path fill="#DBDBDB" d="M99.795,0H1C0.683,0,0,0.676,0,1v56c0,0.324,0.683,1,1,1h46v4H35v4h28.999v-4H53v-4h46.999
			c0.316,0,1-0.676,1-1V1.212C100.999,0.887,100.113,0,99.795,0z M50.846,0.563c0.036,0,0.064,0.029,0.064,0.066
			s-0.028,0.066-0.064,0.066c-0.035,0-0.064-0.03-0.064-0.066S50.811,0.563,50.846,0.563z M50.176,0.499
			c0.071,0,0.128,0.058,0.127,0.13c0,0.071-0.057,0.13-0.127,0.13c-0.07,0-0.127-0.058-0.127-0.13
			C50.049,0.557,50.106,0.499,50.176,0.499z M49.298,56.942V55.73H50.5v1.212H49.298z M96.999,54H4V4h92.999V54z"/>
	</g>
</g>
<g>
	<path fill="#CCCCCC" d="M34.701,22.507c-3.968,3.455-6.127,10.554-6.181,15.602h-4.103c0.432-5.587,2.753-11.013,6.343-15.332
		h-8.961v-3.563h12.902V22.507z"/>
	<path fill="#CCCCCC" d="M34.731,26.476c-0.135-4.319,2.322-7.639,6.856-7.639c3.455,0,6.478,2.213,6.478,5.912
		c0,2.834-1.512,4.4-3.374,5.722c-1.862,1.323-4.076,2.402-5.453,4.346h8.935v3.293H34.3c0.027-4.373,2.699-6.235,5.965-8.449
		c1.674-1.134,3.941-2.294,3.968-4.616c0-1.782-1.188-2.916-2.834-2.916c-2.268,0-2.996,2.349-2.996,4.346H34.731z"/>
	<path fill="#CCCCCC" d="M56.221,18.836c3.779,0,6.965,2.375,6.965,9.745c0,7.531-3.186,9.906-6.965,9.906
		c-3.725,0-6.91-2.375-6.91-9.906C49.311,21.212,52.497,18.836,56.221,18.836z M56.221,35.329c3.132,0,3.132-4.616,3.132-6.748
		c0-1.971,0-6.586-3.132-6.586c-3.077,0-3.077,4.616-3.077,6.586C53.144,30.713,53.144,35.329,56.221,35.329z"/>
	<path fill="#CCCCCC" d="M65.215,24.154h3.644v1.781h0.054c0.918-1.484,2.43-2.159,4.157-2.159c4.373,0,6.344,3.536,6.344,7.504
		c0,3.725-2.052,7.207-6.128,7.207c-1.674,0-3.266-0.729-4.184-2.105h-0.054v6.64h-3.833V24.154z M75.581,31.172
		c0-2.213-0.892-4.508-3.348-4.508c-2.51,0-3.32,2.24-3.32,4.508c0,2.267,0.864,4.427,3.348,4.427
		C74.77,35.599,75.581,33.439,75.581,31.172z"/>
</g>
</svg>
